<?xml version="1.0"?>
<svg width="512" height="512" xmlns="http://www.w3.org/2000/svg" xmlns:svg="http://www.w3.org/2000/svg">
 <g class="layer">
  <title>Layer 1</title>
  <g id="svg_1" transform="matrix(1.125 0 0 1.125 0 0)">
   <path d="m227.45,0a227.45,227.5 0 0 0 -227.45,227.5a227.45,227.5 0 0 0 227.45,227.5a227.45,227.5 0 0 0 227.45,-227.5a227.45,227.5 0 0 0 -227.45,-227.5zm-98.39,149.32a27.03,26.59 0 0 1 27.02,26.59a27.03,26.59 0 0 1 -27.02,26.59a27.03,26.59 0 0 1 -27.03,-26.59a27.03,26.59 0 0 1 27.03,-26.59zm98.39,0a27.03,26.59 0 0 1 27.03,26.59a27.03,26.59 0 0 1 -27.03,26.59a27.03,26.59 0 0 1 -27.03,-26.59a27.03,26.59 0 0 1 27.03,-26.59zm98.39,0a27.03,26.59 0 0 1 27.03,26.59a27.03,26.59 0 0 1 -27.03,26.59a27.03,26.59 0 0 1 -27.02,-26.59a27.03,26.59 0 0 1 27.02,-26.59zm-196.79,103.17a27.03,26.59 0 0 1 27.02,26.59a27.03,26.59 0 0 1 -27.02,26.59a27.03,26.59 0 0 1 -27.03,-26.59a27.03,26.59 0 0 1 27.03,-26.59zm98.39,0a27.03,26.59 0 0 1 27.03,26.59a27.03,26.59 0 0 1 -27.03,26.59a27.03,26.59 0 0 1 -27.03,-26.59a27.03,26.59 0 0 1 27.03,-26.59zm98.39,0a27.03,26.59 0 0 1 27.03,26.59a27.03,26.59 0 0 1 -27.03,26.59a27.03,26.59 0 0 1 -27.02,-26.59a27.03,26.59 0 0 1 27.02,-26.59z" fill="#f5f5f5" id="svg_3"/>
  </g>
 </g>
</svg>