<?xml version="1.0" encoding="UTF-8"?>
<svg xmlns="http://www.w3.org/2000/svg" xmlns:xlink="http://www.w3.org/1999/xlink" viewBox="0 0 80 80" width="80px" height="80px">
<g id="surface85962552">
<path style=" stroke:none;fill-rule:nonzero;fill:rgb(100%,100%,100%);fill-opacity:1;" d="M 3 37 L 77 37 L 77 43 L 3 43 Z M 3 37 "/>
<path style=" stroke:none;fill-rule:nonzero;fill:rgb(45.490196%,58.823532%,76.862746%);fill-opacity:1;" d="M 76 38 L 76 42 L 4 42 L 4 38 L 76 38 M 78 36 L 2 36 L 2 44 L 78 44 Z M 78 36 "/>
<path style=" stroke:none;fill-rule:nonzero;fill:rgb(100%,100%,100%);fill-opacity:1;" d="M 3 17 L 77 17 L 77 23 L 3 23 Z M 3 17 "/>
<path style=" stroke:none;fill-rule:nonzero;fill:rgb(45.490196%,58.823532%,76.862746%);fill-opacity:1;" d="M 76 18 L 76 22 L 4 22 L 4 18 L 76 18 M 78 16 L 2 16 L 2 24 L 78 24 Z M 78 16 "/>
<path style=" stroke:none;fill-rule:nonzero;fill:rgb(100%,100%,100%);fill-opacity:1;" d="M 3 57 L 77 57 L 77 63 L 3 63 Z M 3 57 "/>
<path style=" stroke:none;fill-rule:nonzero;fill:rgb(45.490196%,58.823532%,76.862746%);fill-opacity:1;" d="M 76 58 L 76 62 L 4 62 L 4 58 L 76 58 M 78 56 L 2 56 L 2 64 L 78 64 Z M 78 56 "/>
</g>
</svg>
